<svg width="22" height="21" viewBox="0 0 22 21" fill="none" xmlns="http://www.w3.org/2000/svg">
<path d="M18.3334 20.1453C19.0039 20.1453 19.647 19.8795 20.1219 19.4062C20.5968 18.9328 20.8646 18.2905 20.8667 17.62C20.8663 17.2683 20.7964 16.9201 20.6612 16.5955C20.526 16.2708 20.3281 15.976 20.0787 15.728L18.4 14.048V9.05733C18.3999 8.08604 18.2083 7.1243 17.8362 6.22709C17.4642 5.32989 16.9189 4.5148 16.2317 3.82843C15.5444 3.14205 14.7287 2.59785 13.831 2.22692C12.9333 1.85599 11.9713 1.66561 11 1.66666C9.04049 1.66772 7.16153 2.4468 5.77617 3.83267C4.3908 5.21854 3.6124 7.09777 3.61204 9.05733V14.044L1.93338 15.724C1.68385 15.972 1.48569 16.2667 1.35025 16.5914C1.2148 16.916 1.14473 17.2642 1.14404 17.616C1.14616 18.2865 1.414 18.9288 1.88886 19.4022C2.36372 19.8755 3.00688 20.1413 3.67738 20.1413L18.3334 20.1453Z" stroke="#1C1C1C" stroke-width="1.5" stroke-linecap="round" stroke-linejoin="round"/>
</svg>
